<?xml version="1.0" encoding="utf-8"?>
<!-- Generator: Adobe Illustrator 16.0.0, SVG Export Plug-In . SVG Version: 6.00 Build 0)  -->
<!DOCTYPE svg PUBLIC "-//W3C//DTD SVG 1.1//EN" "http://www.w3.org/Graphics/SVG/1.1/DTD/svg11.dtd">
<svg version="1.1" id="Layer_2" xmlns="http://www.w3.org/2000/svg" xmlns:xlink="http://www.w3.org/1999/xlink" x="0px" y="0px"
	 width="951.096px" height="282.028px" viewBox="0 0 951.096 282.028" enable-background="new 0 0 951.096 282.028"
	 xml:space="preserve">
<g>
	<path fill="#413C3C" d="M161.108,148.749c0.14,2.013,0.793,5.191,5.421,9.253c21.797,19.317,87.671,26.47,147.866,27.423V39.474
		c-15.707,6.135-46.336,18.788-76.31,35.262C188.089,102.194,160.013,129.184,161.108,148.749z"/>
	<path fill="#C02126" d="M285.593,220.077c-72.818-3.319-119.515-14.895-142.674-35.439c-10.664-9.42-16.623-21.135-17.32-33.919
		c-2.031-35.827,29.302-70.968,95.738-107.377c14.975-8.238,29.922-15.459,43.281-21.533H18.036v242.669h296.359v-43.57
		C305.22,220.765,295.526,220.528,285.593,220.077z"/>
	<g>
		<path fill="#231F20" d="M382.174,238.575c-2.544,0.359-5.041,0.546-7.479,0.546c-3.354,0-6.41-0.476-9.058-1.431
			c-2.596-1.033-4.866-2.497-6.684-4.423c-1.828-1.951-3.25-4.406-4.238-7.274c-0.98-2.957-1.476-6.383-1.476-10.233
			c0-3.91,0.558-7.371,1.626-10.408c1.066-3.002,2.577-5.537,4.502-7.603c1.908-2.014,4.229-3.584,6.869-4.662
			c4.468-1.757,9.782-1.941,15.327-1.093c2.207,0.289,4.626,0.909,7.179,1.729l0.76,0.223v-11.646l-0.399-0.151
			c-1.986-0.68-4.264-1.244-6.754-1.633c-2.516-0.389-5.217-0.556-7.99-0.556c-5.474,0-10.453,0.971-14.787,2.833
			c-4.335,1.846-8.007,4.461-10.904,7.683c-2.913,3.302-5.13,7.161-6.674,11.629c-1.529,4.395-2.289,9.26-2.289,14.435
			c0,5.014,0.716,9.675,2.146,13.825c1.448,4.194,3.612,7.832,6.489,10.842c2.859,3.028,6.473,5.395,10.738,7.027
			c4.264,1.642,9.26,2.464,14.823,2.464c2.859,0,5.667-0.187,8.315-0.582c2.657-0.389,5.175-0.901,7.496-1.608l0.389-0.098v-11.864
			l-0.769,0.291C387.126,237.566,384.735,238.15,382.174,238.575z"/>
		<path fill="#231F20" d="M442.899,220.201c0,4.644-0.575,8.282-1.608,10.896c-1.226,2.809-2.921,4.881-5.172,6.127
			c-2.297,1.298-5.025,1.897-8.132,1.897c-3.126,0-5.845-0.6-8.131-1.897c-2.262-1.246-3.999-3.318-5.175-6.127
			c-1.068-2.595-1.606-6.252-1.606-10.896v-39.022h-13.184v40.1c0,2.833,0.169,5.448,0.486,7.717c0.327,2.295,0.84,4.441,1.58,6.32
			c0.884,2.375,2.11,4.539,3.604,6.454c1.484,1.906,3.354,3.515,5.501,4.848c2.093,1.324,4.59,2.357,7.39,3.037
			c2.79,0.707,5.923,1.042,9.385,1.042c3.452,0,6.629-0.335,9.438-1.042c2.791-0.68,5.368-1.713,7.505-3.037
			c2.19-1.333,4.07-2.941,5.599-4.848c1.526-1.88,2.735-4.034,3.635-6.427c0.725-1.925,1.273-4.08,1.564-6.348
			c0.317-2.322,0.476-4.961,0.476-7.717v-40.1h-13.153V220.201z"/>
		<path fill="#231F20" d="M489.073,181.178l-26.442,68.256h14.057l6.39-17.094h23.839l6.401,17.094h13.941l-26.398-68.256H489.073z
			 M502.6,220.907h-15.212l1.968-5.174c1.651-4.45,3.577-9.871,5.644-16.219c2.135,6.33,3.999,11.769,5.665,16.219L502.6,220.907z"
			/>
		<path fill="#231F20" d="M553.886,181.178l-26.405,68.256h14.028l6.4-17.094h23.811l6.412,17.094h13.938l-26.398-68.256H553.886z
			 M567.421,220.907h-15.213l1.934-5.174c1.688-4.37,3.559-9.818,5.679-16.219c2.11,6.294,4.025,11.742,5.667,16.219
			L567.421,220.907z"/>
		<path fill="#231F20" d="M650.784,195.26c-1.838-2.685-4.159-5.051-6.888-7.004c-2.701-1.959-5.881-3.565-9.394-4.66
			c-1.175-0.423-2.499-0.787-3.93-1.061c-1.404-0.291-2.887-0.555-4.386-0.748c-1.502-0.205-3.093-0.347-4.664-0.46
			c-1.588-0.106-3.179-0.149-4.723-0.149h-17.87v68.256h16.13c4.397,0,8.434-0.24,11.955-0.805c3.575-0.546,6.772-1.351,9.561-2.419
			c3.384-1.298,6.35-2.957,8.812-5.006c2.473-2.03,4.539-4.37,6.154-7.036c1.644-2.668,2.834-5.634,3.639-8.811
			c0.82-3.207,1.19-6.677,1.19-10.313c0-3.824-0.483-7.443-1.431-10.744C654.015,200.999,652.61,197.953,650.784,195.26z
			 M612.068,192.629h4.696c2.791,0,5.335,0.166,7.603,0.511c2.206,0.327,4.281,0.857,6.057,1.571
			c1.924,0.769,3.699,1.748,5.228,2.975c1.518,1.193,2.833,2.615,3.866,4.266c1.086,1.695,1.933,3.602,2.488,5.738
			c0.566,2.153,0.857,4.575,0.857,7.285c0,5.128-0.882,9.376-2.63,12.65c-1.695,3.23-4.293,5.757-7.647,7.496
			c-3.849,1.897-9.27,2.861-16.175,2.861h-4.343V192.629z"/>
		<path fill="#231F20" d="M745.984,220.201c0,4.644-0.546,8.282-1.606,10.896c-1.19,2.809-2.941,4.881-5.183,6.127
			c-2.286,1.298-5.032,1.897-8.114,1.897c-3.144,0-5.872-0.6-8.122-1.897c-2.251-1.246-4.009-3.318-5.192-6.127
			c-1.066-2.595-1.606-6.252-1.606-10.896v-39.022h-13.155v40.1c0,2.833,0.16,5.448,0.461,7.717c0.3,2.295,0.854,4.441,1.579,6.32
			c0.875,2.375,2.11,4.539,3.63,6.454c1.465,1.906,3.311,3.515,5.464,4.848c2.128,1.324,4.601,2.357,7.374,3.037
			c2.806,0.707,5.958,1.042,9.42,1.042c3.461,0,6.62-0.335,9.42-1.042c2.835-0.68,5.367-1.713,7.541-3.037
			c2.161-1.333,4.025-2.941,5.552-4.848c1.518-1.88,2.746-4.034,3.654-6.427c0.76-1.925,1.263-4.053,1.564-6.348
			c0.317-2.269,0.502-4.884,0.502-7.717v-40.1h-13.182V220.201z"/>
		<path fill="#231F20" d="M815.036,205.695c-1.606-2.173-3.584-4.105-5.926-5.694c-2.295-1.581-5.006-2.834-8.096-3.684
			c-1.737-0.546-3.655-0.908-5.614-1.146c-1.969-0.246-4.079-0.344-6.312-0.344h-17.2v54.607h14.419
			c4.952,0,9.075-0.373,12.281-1.096c3.213-0.732,6.152-1.837,8.74-3.224c2.622-1.439,4.899-3.283,6.736-5.447
			c1.826-2.171,3.293-4.786,4.29-7.716c0.989-2.904,1.484-6.285,1.484-10.021c0-3.144-0.397-6.101-1.211-8.864
			C817.817,210.356,816.606,207.892,815.036,205.695z M787.859,238.195h-3.212v-32.11h4.254c1.617,0,3.232,0.07,4.777,0.237
			c1.52,0.133,2.879,0.442,4.025,0.882c6.029,2.173,9.016,6.968,9.016,14.639c0,2.922-0.415,5.52-1.14,7.585
			c-0.725,2.056-1.864,3.718-3.346,5.032c-1.52,1.244-3.479,2.225-5.819,2.835C794.05,237.859,791.172,238.195,787.859,238.195z"/>
		<polygon fill="#231F20" points="842.167,227.132 863.576,227.132 863.576,216.095 842.167,216.095 842.167,205.862 
			867.506,205.862 867.506,194.827 829.39,194.827 829.39,249.434 868.937,249.434 868.937,238.387 842.167,238.387 		"/>
		<path fill="#231F20" d="M905.239,212.387v11.45h14.666v14.63c-0.979,0.178-2.11,0.318-3.346,0.467
			c-1.449,0.115-2.826,0.187-4.186,0.187c-7.179,0-12.767-1.897-16.652-5.756c-3.875-3.806-5.86-9.676-5.905-17.395
			c0-3.981,0.662-7.547,1.906-10.548c1.298-3.047,3.037-5.59,5.219-7.674c2.206-2.066,4.819-3.602,7.841-4.662
			c3.035-1.068,6.348-1.579,9.779-1.579c2.598,0,5.211,0.185,7.764,0.608c2.55,0.416,5.092,1.078,7.591,1.882l0.796,0.238v-11.629
			l-0.38-0.14c-1.942-0.68-4.424-1.342-7.381-1.802c-3.011-0.487-6.226-0.707-9.491-0.707c-3.771,0-7.336,0.38-10.604,1.22
			c-3.274,0.847-6.312,2.021-9.093,3.584c-2.764,1.588-5.262,3.468-7.372,5.668c-2.182,2.199-4.008,4.714-5.527,7.425
			c-1.5,2.737-2.666,5.738-3.426,8.909c-0.775,3.194-1.146,6.594-1.146,10.108c0,4.97,0.732,9.58,2.188,13.659
			c1.492,4.13,3.734,7.714,6.693,10.718c2.948,2.983,6.701,5.35,11.167,6.982c4.425,1.642,9.695,2.464,15.592,2.464
			c1.95,0,3.981-0.089,5.97-0.291c2.004-0.222,3.964-0.46,5.854-0.777c1.87-0.317,3.601-0.707,5.128-1.104
			c1.52-0.404,2.808-0.777,3.787-1.173l0.389-0.143v-34.82H905.239z"/>
	</g>
	<g>
		<rect x="341.032" y="41.972" fill="#231F20" width="13.665" height="86.187"/>
		<polygon fill="#231F20" points="401.993,105.787 383.604,41.972 364.648,41.972 364.648,128.159 376.946,128.159 376.946,64.513 
			395.275,128.159 414.338,128.159 414.338,41.972 401.993,41.972 		"/>
		<polygon fill="#231F20" points="446.104,105.071 432.56,41.972 418.037,41.972 438.168,128.159 453.324,128.159 473.817,41.972 
			459.911,41.972 		"/>
		<polygon fill="#231F20" points="491.024,91.59 513.361,91.59 513.361,77.04 491.024,77.04 491.024,56.656 514.403,56.656 
			514.403,41.972 477.587,41.972 477.587,128.159 515.137,128.159 515.137,113.505 491.024,113.505 		"/>
		<path fill="#231F20" d="M547.141,78.824l-5.801-3.567c-3.786-2.278-7.794-5.146-7.794-10.375c0-8.571,6.823-9.508,9.744-9.508
			c4.284,0,8.547,1.245,11.946,3.522l1.309,0.848l0.467-16.068l-0.538-0.238c-4.292-1.837-8.847-2.737-13.872-2.737
			c-16.792,0-22.759,13.526-22.759,25.057c0,12.677,5.818,18.505,11.495,22.495l6.294,4.361c3.77,2.544,8.413,5.694,8.413,11.267
			c0,9.818-6.603,10.896-9.455,10.896c-5.728,0-10.478-1.609-14.506-4.866l-1.401-1.128l-0.46,16.783l0.502,0.238
			c5.005,2.499,10.702,3.743,16.916,3.743c10.296,0,22.251-6.932,22.251-26.549C559.892,88.52,553.443,82.656,547.141,78.824z"/>
		<polygon fill="#231F20" points="561.002,58.651 577.829,58.651 577.829,128.159 591.604,128.159 591.604,58.651 608.467,58.651 
			608.467,41.972 561.002,41.972 		"/>
		<rect x="613.393" y="41.972" fill="#231F20" width="13.694" height="86.187"/>
		<path fill="#231F20" d="M665.183,95.996h7.107v16.75c-2.197,1.226-4.548,1.782-7.487,1.782c-11.946,0-16.183-15.183-16.183-29.407
			c0-17.827,7.329-29.375,18.683-29.375c5.041,0,9.518,1.511,13.226,4.495l1.342,1.122l0.573-16.511l-0.522-0.248
			c-4.952-2.488-11.184-3.901-17.064-3.901c-17.932,0-30.496,18.294-30.496,44.419c0,27.429,11.629,44.425,30.329,44.425
			c7.045,0,13.446-1.677,19.547-5.147l0.439-0.273v-42.13h-19.493V95.996z"/>
		<path fill="#231F20" d="M707.889,41.972l-20.942,86.187h13.606l4.837-21.135h21.517l4.777,21.135h14.205l-20.978-86.187H707.889z
			 M723.992,92.474h-15.776l8.007-33.868L723.992,92.474z"/>
		<path fill="#231F20" d="M787.976,110.741c-3.206,2.277-6.905,3.399-11,3.399c-10.896,0-17.676-11.1-17.676-29.02
			c0-17.367,7.202-28.978,17.922-28.978c3.513,0,7.494,1.21,10.638,3.258l1.291,0.856l0.573-16.183l-0.531-0.273
			c-4.067-1.9-9.394-3.1-13.825-3.1c-17.588,0-30.354,18.682-30.354,44.419c0,27.429,11.655,44.425,30.354,44.425
			c5.245,0,10.366-1.315,14.107-3.663l0.416-0.265l-0.556-15.796L787.976,110.741z"/>
		<rect x="796.345" y="41.972" fill="#231F20" width="13.686" height="86.187"/>
		<polygon fill="#231F20" points="858.182,17.551 844.911,17.551 838.513,36.524 848.259,36.524 		"/>
		<path fill="#231F20" d="M844.569,40.701c-16.821,0-27.266,17.048-27.266,44.419c0,27.818,10.189,44.425,27.266,44.425
			c16.854,0,27.315-16.996,27.315-44.425C871.885,57.309,861.705,40.701,844.569,40.701z M844.569,114.776
			c-9.58,0-12.997-15.954-12.997-29.656c0-13.677,3.417-29.622,12.997-29.622c9.622,0,13.074,15.31,13.074,29.622
			C857.644,99.483,854.191,114.776,844.569,114.776z"/>
		<polygon fill="#231F20" points="916.61,41.972 916.61,105.787 898.23,41.972 879.257,41.972 879.257,128.159 891.571,128.159 
			891.571,64.513 909.865,128.159 928.919,128.159 928.919,41.972 		"/>
	</g>
	<path fill="#231F20" d="M688.518,214.877c0,5.519-4.424,9.967-9.96,9.967c-5.481,0-9.94-4.448-9.94-9.967
		c0-5.465,4.459-9.916,9.94-9.916C684.094,204.961,688.518,209.413,688.518,214.877z"/>
	
		<line fill="#413C3C" stroke="#413C3C" stroke-width="11.6695" stroke-miterlimit="10" x1="342.745" y1="155.407" x2="932.805" y2="155.407"/>
</g>
</svg>
