<?xml version="1.0" encoding="utf-8"?>
<!-- Generator: Adobe Illustrator 16.0.0, SVG Export Plug-In . SVG Version: 6.00 Build 0)  -->
<!DOCTYPE svg PUBLIC "-//W3C//DTD SVG 1.1//EN" "http://www.w3.org/Graphics/SVG/1.1/DTD/svg11.dtd">
<svg version="1.1" id="Layer_1" xmlns="http://www.w3.org/2000/svg" xmlns:xlink="http://www.w3.org/1999/xlink" x="0px" y="0px"
	 width="895.181px" height="289.157px" viewBox="0 0 895.181 289.157" enable-background="new 0 0 895.181 289.157"
	 xml:space="preserve">
<g>
	<polygon fill="#595A5C" points="30.011,110.412 30.011,266.417 263.49,266.417 174.928,110.412 	"/>
	<polygon fill="#C02528" points="30.011,22.74 30.011,66.479 199.842,66.479 313.357,266.417 322.565,266.417 322.565,22.74 	"/>
	<g>
		<defs>
			<rect id="SVGID_1_" x="30.011" y="22.74" width="835.158" height="243.678"/>
		</defs>
		<clipPath id="SVGID_2_">
			<use xlink:href="#SVGID_1_"  overflow="visible"/>
		</clipPath>
		<path clip-path="url(#SVGID_2_)" fill="#231F20" d="M371.204,39.321v35.388h7.662c5.112,0,7.93-2.438,7.93-9.916V49.138
			c0-7.451-2.817-9.817-7.93-9.817H371.204z M402.917,50.189v13.605c0,16.705-7.937,25.835-24.051,25.835h-7.662v39.227h-16.097
			V24.373h23.759C394.98,24.373,402.917,33.478,402.917,50.189"/>
		<path clip-path="url(#SVGID_2_)" fill="#231F20" d="M425.182,104.815c0,7.478,3.257,10.312,8.378,10.312
			c5.147,0,8.352-2.834,8.352-10.312V48.414c0-7.476-3.204-10.293-8.352-10.293c-5.121,0-8.378,2.817-8.378,10.293V104.815z
			 M409.071,49.457c0-16.748,8.642-26.274,24.489-26.274c15.83,0,24.51,9.526,24.51,26.274v54.316
			c0,16.729-8.68,26.256-24.51,26.256c-15.848,0-24.489-9.526-24.489-26.256V49.457z"/>
		<path clip-path="url(#SVGID_2_)" fill="#231F20" d="M490.199,23.182c15.698,0,23.776,9.526,23.776,26.274v3.277h-15.259v-4.32
			c0-7.476-2.921-10.293-8.069-10.293c-5.154,0-8.069,2.817-8.069,10.293c0,21.51,31.556,25.508,31.556,55.359
			c0,16.729-8.236,26.256-24.095,26.256c-15.83,0-24.057-9.526-24.057-26.256v-6.428h15.236v7.47c0,7.478,3.251,10.171,8.398,10.171
			c5.118,0,8.352-2.693,8.352-10.171c0-21.481-31.528-25.517-31.528-55.358C466.44,32.708,474.482,23.182,490.199,23.182"/>
		<path clip-path="url(#SVGID_2_)" fill="#231F20" d="M547.55,70.683h22.595v33.09c0,16.729-8.221,26.256-24.053,26.256
			c-15.838,0-24.048-9.526-24.048-26.256V49.457c0-16.748,8.21-26.274,24.048-26.274c15.832,0,24.053,9.526,24.053,26.274v10.162
			h-15.259V48.414c0-7.476-3.222-10.293-8.36-10.293s-8.343,2.817-8.343,10.293v56.401c0,7.478,3.204,10.171,8.343,10.171
			s8.36-2.693,8.36-10.171V85.55h-7.336V70.683z"/>
		<path clip-path="url(#SVGID_2_)" fill="#231F20" d="M596.692,39.321v32.065h6.33c6.021,0,9.66-2.684,9.66-11.035V50.041
			c0-7.443-2.473-10.72-8.193-10.72H596.692z M614.306,128.856c-0.882-2.684-1.448-4.327-1.448-12.847V99.587
			c0-9.686-3.248-13.305-10.552-13.305h-5.614v42.573h-16.123V24.373h24.342c16.74,0,23.91,7.912,23.91,24.041v8.194
			c0,10.744-3.364,17.756-10.551,21.206c8.068,3.436,10.717,11.328,10.717,22.25v16.086c0,5.086,0.151,8.838,1.758,12.706H614.306z"
			/>
	</g>
	<path fill="#231F20" d="M654.961,95.73h15.548l-7.794-52.867L654.961,95.73z M691.762,128.856h-16.29l-2.755-18.956h-19.82
		l-2.79,18.956h-14.841l16.465-104.483h23.607L691.762,128.856z"/>
	<g>
		<defs>
			<rect id="SVGID_3_" x="30.011" y="22.74" width="835.158" height="243.678"/>
		</defs>
		<clipPath id="SVGID_4_">
			<use xlink:href="#SVGID_3_"  overflow="visible"/>
		</clipPath>
		<path clip-path="url(#SVGID_4_)" fill="#231F20" d="M715.361,39.321v74.604h9.12c5.121,0,8.228-2.674,8.228-10.152V49.457
			c0-7.479-3.106-10.136-8.228-10.136H715.361z M699.222,24.373h25.55c16.139,0,24.051,9.105,24.051,25.816v52.851
			c0,16.694-7.912,25.816-24.051,25.816h-25.55V24.373z"/>
		<path clip-path="url(#SVGID_4_)" fill="#231F20" d="M773.932,104.815c0,7.478,3.222,10.312,8.343,10.312
			c5.147,0,8.369-2.834,8.369-10.312V48.414c0-7.476-3.222-10.293-8.369-10.293c-5.121,0-8.343,2.817-8.343,10.293V104.815z
			 M757.756,49.457c0-16.748,8.688-26.274,24.519-26.274c15.856,0,24.51,9.526,24.51,26.274v54.316
			c0,16.729-8.653,26.256-24.51,26.256c-15.83,0-24.519-9.526-24.519-26.256V49.457z"/>
		<path clip-path="url(#SVGID_4_)" fill="#231F20" d="M838.893,23.182c15.726,0,23.768,9.526,23.768,26.274v3.277h-15.245v-4.32
			c0-7.476-2.95-10.293-8.062-10.293c-5.139,0-8.087,2.817-8.087,10.293c0,21.51,31.563,25.508,31.563,55.359
			c0,16.729-8.211,26.256-24.067,26.256s-24.051-9.526-24.051-26.256v-6.428h15.248v7.47c0,7.478,3.215,10.171,8.352,10.171
			c5.156,0,8.362-2.693,8.362-10.171c0-21.481-31.537-25.517-31.537-55.358C815.136,32.708,823.197,23.182,838.893,23.182"/>
	</g>
	<rect x="349.219" y="145.921" fill="#231F20" width="515.95" height="12.317"/>
	<g>
		<defs>
			<rect id="SVGID_5_" x="30.011" y="22.74" width="835.158" height="243.678"/>
		</defs>
		<clipPath id="SVGID_6_">
			<use xlink:href="#SVGID_5_"  overflow="visible"/>
		</clipPath>
		<path clip-path="url(#SVGID_6_)" fill="#231F20" d="M369.55,187.363c2.164-1.191,4.954-1.809,8.362-1.809h0.38
			c8.343,0,11.751,3.691,13.729,6.844c1.235,2.029,1.95,3.873,2.33,5.859l0.291,1.592l10.022,0.045l-0.434-2.342
			c-1.73-9.359-7.594-16.881-15.334-19.547c-3.224-1.164-6.914-1.756-10.949-1.756c-4.485,0-8.397,0.713-11.689,2.207
			c-3.478,1.633-6.532,3.998-8.83,6.719c-5.367,6.338-8.209,15.645-8.209,26.98c0,4.83,0.713,16.969,7.273,25.32
			c4.961,6.473,12.609,9.898,22.064,9.898c7.256,0,11.866-1.979,14.488-3.674c3.232-2.049,9.711-8.342,11.195-17.232l0.415-2.395
			l-9.951,0.389l-0.354,1.465c-0.335,1.52-1.015,3.639-3.001,6.305c-3.055,4.027-6.666,5.74-12.078,5.74
			c-10.443,0-16.589-5.086-18.831-15.557c-1.104-4.936-1.104-9.139-1.104-10.965c0-9.131,1.996-13.949,3.771-17.156
			C364.307,192.105,366.391,189.123,369.55,187.363"/>
		<path clip-path="url(#SVGID_6_)" fill="#231F20" d="M457.892,208.908v-31.043h-9.835v41.371c0,4.99,0,10.109-3.088,13.924
			c-2.5,2.975-6.906,4.67-12.424,4.67c-3.691,0-6.719-0.74-9.465-2.25c-0.909-0.467-3.239-1.74-4.607-4.662
			c-1.476-2.984-1.66-6.691-1.66-9.598v-43.455h-9.791v34.389c-0.01,11.574-0.01,17.949,3.319,23.908
			c1.694,2.879,3.856,4.883,5.005,5.818c3.082,2.463,8.609,5.395,17.314,5.395c10.771,0,16.678-4.256,19.733-7.85
			c4.37-5.314,5.163-11.479,5.341-17.312C457.892,217.718,457.892,213.455,457.892,208.908"/>
	</g>
	<path fill="#231F20" d="M478.446,217.603l9.431-25.084l9.305,25.084H478.446z M484.177,177.865l-27.202,67.84h10.842l7.17-19.236
		h25.463l7.203,19.236h10.69l-26.548-67.84H484.177z"/>
	<path fill="#231F20" d="M539.95,217.603l9.411-25.084l9.305,25.084H539.95z M545.644,177.865l-27.212,67.84h10.842l7.205-19.236
		h25.419l7.221,19.236h10.693l-26.55-67.84H545.644z"/>
	<g>
		<defs>
			<rect id="SVGID_7_" x="30.011" y="22.74" width="835.158" height="243.678"/>
		</defs>
		<clipPath id="SVGID_8_">
			<use xlink:href="#SVGID_7_"  overflow="visible"/>
		</clipPath>
		<path clip-path="url(#SVGID_8_)" fill="#231F20" d="M624.291,211.828c0,9.75-3.248,15.441-4.644,17.463l-0.035,0.107
			c-0.538,0.857-2.518,3.734-5.517,5.156c-3.135,1.484-8.185,1.775-15.895,1.775h-7.47v-48.967h9.087c7.063,0,9.958,0,13.102,1.148
			c2.755,1.033,4.679,3.082,5.579,4.213C623.708,199.037,624.291,208.173,624.291,211.828 M625.252,185.554
			c-6.065-6.561-12.475-7.326-19.033-7.566c-2.295-0.123-4.415-0.123-6.677-0.123h-18.751v67.84h18.303
			c8.606,0,12.97-0.053,17.533-1.826c4.213-1.662,7.354-4.645,8.829-6.305c7.9-8.891,8.768-21.102,8.768-25.93
			C634.224,196.742,627.954,188.443,625.252,185.554"/>
		<path clip-path="url(#SVGID_8_)" fill="#231F20" d="M666.537,211.13c0,5.766-4.581,10.447-10.249,10.447
			c-5.686,0-10.277-4.682-10.277-10.447c0-5.738,4.592-10.436,10.277-10.436C661.956,200.695,666.537,205.392,666.537,211.13"/>
		<path clip-path="url(#SVGID_8_)" fill="#231F20" d="M714.892,187.433h-0.775v0.814v34.15v0.873c0,4.221,0.009,8.537-2.579,11.762
			c-2.411,2.939-6.525,4.82-10.516,4.82c-4.175,0-8.589-2.102-10.718-5.156c-2.33-3.25-2.33-7.717-2.33-11.629v-0.67v-34.15v-0.814
			h-0.769h-6.295h-0.777v0.814v35.898c0,6.057,0.451,11.961,5.766,17.172c3.85,3.752,9.474,6.057,15.123,6.057
			c6.092,0,11.84-2.473,15.77-6.826c4.75-4.969,5.164-10.373,5.164-16.402v-35.898v-0.814h-0.794H714.892z"/>
		<path clip-path="url(#SVGID_8_)" fill="#231F20" d="M756.185,227.394c0,6.377-3.391,12.775-10.946,12.775
			c-7.381,0-10.762-6.674-10.762-12.855c0-5.852,3.741-12.033,10.664-12.033C751.639,215.281,756.185,220.244,756.185,227.394
			 M756.663,188.785h-0.769v0.795v23.379c-2.975-3.072-7.116-4.906-11.406-4.906c-10.233,0-17.676,8.297-17.676,19.74
			c0,11.15,7.558,19.582,17.596,19.582c4.45,0,8.538-1.723,11.486-4.795v3.002v0.812h0.769h6.003h0.76v-0.812V189.58v-0.795h-0.76
			H756.663z"/>
		<path clip-path="url(#SVGID_8_)" fill="#231F20" d="M774.788,223.015c1.122-4.344,5.297-7.734,9.791-7.734
			c4.37,0,8.265,3.275,9.334,7.734H774.788z M784.51,208.052c-10.693,0-17.846,8.086-17.846,20.119
			c0,11.143,7.576,19.203,17.977,19.203c7.362,0,13.377-3.736,16.934-10.48l0.336-0.68l-0.653-0.344l-5.095-2.984l-0.662-0.416
			l-0.397,0.734c-2.551,4.66-5.818,6.965-10.029,6.965c-5.872,0-10.286-4.299-10.699-10.355h26.803h0.733l0.044-0.76
			c0.345-6.197-1.502-11.963-5.085-15.857C793.744,209.806,789.454,208.052,784.51,208.052"/>
		<path clip-path="url(#SVGID_8_)" fill="#231F20" d="M862.186,216.73l-0.019-0.77h-0.777h-23.475h-0.786v0.787v5.959v0.785h0.786
			h15.943c-0.484,9.836-10.216,16.361-19.315,16.361c-5.246,0-11.18-2.719-15.461-7.064c-4.098-4.246-6.348-9.809-6.348-15.654
			c0-12.803,9.984-23.166,22.248-23.166c7.594,0,13.905,3.506,18.744,10.471l0.538,0.707l0.636-0.592l4.583-4.369l0.511-0.461
			l-0.439-0.564c-6.395-8.467-14.621-12.723-24.483-12.723c-16.651,0-30.178,13.73-30.178,30.654
			c0,16.404,13.659,30.283,29.815,30.283c8.193,0,16.219-3.691,21.429-9.871C861.381,231.375,862.326,224.976,862.186,216.73"/>
	</g>
</g>
</svg>
